<svg xmlns="http://www.w3.org/2000/svg" xmlns:xlink="http://www.w3.org/1999/xlink" version="1.1" id="Layer_1" x="0px" y="0px" width="100px" height="100px" viewBox="0 0 100 100" enable-background="new 0 0 100 100" xml:space="preserve">
<path fill="none" d="M26.937,50c0,1.042-0.157,2.047-0.435,3h8.134c-0.214-0.967-0.335-1.969-0.335-3c0-0.681,0.066-1.345,0.161-2  h-7.719C26.866,48.649,26.937,49.316,26.937,50z"/>
<path fill="none" d="M62.099,50c0,1.031-0.121,2.033-0.335,3h8.136c-0.278-0.953-0.435-1.958-0.435-3c0-0.684,0.071-1.351,0.194-2  h-7.722C62.033,48.655,62.099,49.319,62.099,50z"/>
<path d="M34.462,48c0.049-0.337,0.102-0.671,0.175-1h-8.135c0.095,0.328,0.176,0.661,0.241,1H34.462z"/>
<path d="M69.659,48c0.063-0.339,0.145-0.672,0.24-1h-8.136c0.072,0.329,0.125,0.663,0.174,1H69.659z"/>
<path d="M26.502,53c-0.1,0.341-0.215,0.674-0.346,1h8.738c-0.099-0.328-0.183-0.662-0.258-1H26.502z"/>
<path d="M61.764,53c-0.074,0.338-0.159,0.672-0.258,1h8.74c-0.132-0.326-0.247-0.659-0.347-1H61.764z"/>
<path d="M25.937,50c0-5.368-4.368-9.735-9.736-9.735S6.465,44.632,6.465,50s4.367,9.736,9.735,9.736S25.937,55.368,25.937,50z"/>
<path d="M80.201,40.265c-5.368,0-9.736,4.367-9.736,9.735s4.368,9.736,9.736,9.736s9.735-4.368,9.735-9.736  S85.569,40.265,80.201,40.265z"/>
<path d="M61.599,50c0-7.388-6.011-13.398-13.398-13.398c-7.389,0-13.399,6.011-13.399,13.398c0,7.388,6.011,13.399,13.399,13.399  C55.588,63.399,61.599,57.389,61.599,50z M48.201,62.399c-6.837,0-12.399-5.563-12.399-12.399s5.563-12.398,12.399-12.398  c6.836,0,12.398,5.562,12.398,12.398S55.037,62.399,48.201,62.399z"/>
</svg>